<?xml version="1.0" encoding="UTF-8"?>
<svg width="52.9mm" height="52.9mm" version="1.1" viewBox="0 0 52.9 52.9" xmlns="http://www.w3.org/2000/svg" xmlns:cc="http://creativecommons.org/ns#" xmlns:dc="http://purl.org/dc/elements/1.1/" xmlns:rdf="http://www.w3.org/1999/02/22-rdf-syntax-ns#" xmlns:xlink="http://www.w3.org/1999/xlink">
 <defs>
  <linearGradient id="vlpc" x1=".152" x2=".547" y1="-.587" y2="-.4" gradientTransform="matrix(70.2,-70.2,70.2,70.2,31.5,66.8)" gradientUnits="userSpaceOnUse">
   <stop style="stop-color:#6fdc8c" offset="0"/>
   <stop style="stop-color:#6fdc8c" offset=".305"/>
   <stop style="stop-color:#009d9a" offset=".928"/>
   <stop style="stop-color:#009d9a" offset="1"/>
  </linearGradient>
  <linearGradient id="vlpa" x1=".152" x2=".547" y1="-.587" y2="-.4" gradientTransform="matrix(70.2,-70.2,70.2,70.2,31.5,66.8)" gradientUnits="userSpaceOnUse" xlink:href="#vlpc"/>
 </defs>
 <title>IBM AIX 2021 logo (square)</title>
 <metadata>
  <rdf:RDF>
   <cc:Work rdf:about="">
    <dc:format>image/svg+xml</dc:format>
    <dc:type rdf:resource="http://purl.org/dc/dcmitype/StillImage"/>
    <dc:title>IBM AIX 2021 logo (square)</dc:title>
   </cc:Work>
  </rdf:RDF>
 </metadata>
 <g transform="matrix(.5 0 0 .5 -.301 -.62)">
  <g transform="matrix(.529 0 0 .529 .283 .584)">
   <rect x=".601" y="1.24" width="200" height="200" style="fill:#020202;stop-color:#000000"/>
   <g transform="matrix(4.2,0,0,4.25,21.8,65.5)" style="fill:url(#vlpa);stroke-width:.737">
    <path d="m10.9 14.8-0.982-3.26h-4.58l-0.982 3.26h-3.02l4.52-13.7h3.69l4.46 13.7zm-3.24-11h-0.0982l-1.51 5.21h3.14z" style="fill:url(#vlpa);stroke-width:.737"/>
    <path d="m15.4 14.8v-2.38h1.77v-8.96h-1.77v-2.38h6.52v2.38h-1.77v8.96h1.77v2.38z" style="fill:url(#vlpa);stroke-width:.737"/>
    <path d="m35.8 14.8h-3.46l-2.97-5.05h-0.0589l-2.89 5.05h-3.22l4.4-7.09-4.18-6.62h3.48l2.67 4.64h0.0589l2.71-4.64h3.22l-4.22 6.68z" style="fill:url(#vlpa);stroke-width:.737"/>
   </g>
  </g>
 </g>
</svg>